# xmcd CD database file
#
# Track frame offsets:
#	150
#	13700
#	26677
#	40362
#	54415
#	66927
#	79712
#	93532
#	107467
#	121362
#	134240
#	147062
#	160710
#	174257
#	187762
#	200867
#	214225
#	227115
#	241177
#	254370
#	268727
#	282462
#	295125
#	308292
#
# Disc length: 4296 seconds
#
# Revision: 0
# Processed by: cddbd v1.5PL3 Copyright (c) Steve Scherf et al.
# Submitted via: CDex 1.50
#
DISCID=5a10c618
DTITLE=Fletcher Henderson - The Harmony and Volcal Sessions Vol 1 1925-1926
DYEAR=1900
DGENRE=Jazz
TTITLE0=Peaceful Valley
TTITLE1=Hay Foot, Straw Foot
TTITLE2=Spanish Shawl
TTITLE3=Clap Hands! Here Comes Charlie
TTITLE4=Florida Stomp
TTITLE5=Get It Fixed
TTITLE6=Chinese Blues
TTITLE7=Panama
TTITLE8=Dinah
TTITLE9=I Want Somebody To Cheer Me Up
TTITLE10=I Want To See A Little More Of What I Saw In Arkansas
TTITLE11=Let Me Introduce You To My Rosie
TTITLE12=I Found A New Baby
TTITLE13=Nervous Charlie Stomp
TTITLE14=Black Horse Stomp
TTITLE15=Tampeekoe
TTITLE16=Hi-Diddle-Diddle
TTITLE17=Hard-To-Get Gertie
TTITLE18=Dynamite
TTITLE19=Jackass Blues
TTITLE20=Static Strut
TTITLE21=Off To Buffalo
TTITLE22=Brotherly Love
TTITLE23=Alabama Stomp
EXTD=
EXTT0=
EXTT1=
EXTT2=
EXTT3=
EXTT4=
EXTT5=
EXTT6=
EXTT7=
EXTT8=
EXTT9=
EXTT10=
EXTT11=
EXTT12=
EXTT13=
EXTT14=
EXTT15=
EXTT16=
EXTT17=
EXTT18=
EXTT19=
EXTT20=
EXTT21=
EXTT22=
EXTT23=
PLAYORDER=
